<?xml version="1.0" encoding="UTF-8"?>
<svg xmlns="http://www.w3.org/2000/svg" viewBox="0 0 1408 768" width="1408" height="768">
  <path d="M0.24 0.24C469.41 0.24 938.59 0.24 1407.76 0.24C1407.76 256.11 1407.76 511.98 1407.76 767.85C938.59 767.85 469.41 767.85 0.24 767.85C0.24 511.98 0.24 256.11 0.24 0.24ZM414.81 93.06C414.55 93.35 414.29 93.64 414.03 93.93C411.85 95.23 410.78 96.49 410.28 98.9C407.62 100.13 406.21 103.4 404.77 106.13C400.94 113.4 398.47 121.38 397.9 129.6C397.11 140.91 397.71 152.44 397.72 163.78C397.74 183.08 397.73 202.39 397.73 221.69C397.74 334.04 397.76 446.39 397.71 558.74C397.71 576.46 397.66 594.18 397.69 611.91C397.71 621.36 397.22 630.96 397.88 640.39C398.36 647.26 403 665.03 409.28 668.29C409.72 670.39 410.21 671.08 412.09 672.27C412.67 672.9 413.25 673.52 413.82 674.15C418.7 682.82 434.49 689.51 443.85 691.33C453.44 693.19 463.56 692.36 473.29 692.4C490.69 692.46 508.1 692.38 525.51 692.4C636.27 692.56 747.04 692.67 857.81 692.4C886.76 692.33 917.36 693.76 946.1 692.17C956.11 691.62 975.4 684.83 980.81 675.85C989.22 671.37 995.45 655.19 997.26 646.32C999.55 635.18 998.44 623.22 998.45 611.91C998.47 591.65 998.47 571.4 998.39 551.14C997.97 437.85 998.24 324.54 998.34 211.25C998.36 192.86 998.34 174.47 998.32 156.08C998.31 145.38 999.27 134.21 997.29 123.65C995.85 115.99 991.53 101.19 984.73 96.79C980.42 87.21 963.49 79.07 953.72 76.78C942.74 74.21 930.71 75.39 919.52 75.38C900.21 75.37 880.91 75.44 861.6 75.4C750.53 75.21 639.44 75.43 528.36 75.4C510.32 75.39 492.28 75.3 474.24 75.4C464.17 75.45 453.67 74.55 443.76 76.63C434.66 78.53 419.85 84.86 414.81 93.06ZM732.96 100.33C736.76 100.33 740.55 100.33 744.35 100.34C748.78 100.33 753.21 100.33 757.64 100.32C760.81 100.33 763.97 100.33 767.14 100.34C767.77 100.34 768.4 100.34 769.04 100.34C773.15 100.33 777.26 100.33 781.38 100.33C787.39 100.33 793.4 100.34 799.42 100.34C802.27 100.34 805.11 100.34 807.96 100.34C810.18 100.34 812.39 100.34 814.61 100.34C816.82 100.34 819.04 100.34 821.25 100.34C822.2 100.34 823.15 100.34 824.1 100.33C828.53 100.34 832.96 100.34 837.39 100.34C857.02 100.34 876.64 100.33 896.26 100.33C905.12 100.33 913.98 100.33 922.84 100.33C931.92 100.74 941.57 99.09 950.33 102.1C972.81 109.8 973.36 128.48 973.36 148.59C973.35 162.95 972.9 177.43 973.49 191.78C973.49 192.73 973.49 193.68 973.49 194.63C973.49 283.25 973.49 371.86 973.48 460.47C973.49 462.05 973.49 463.64 973.5 465.22C973.51 519.97 973.53 574.72 973.55 629.47C973.54 631.37 973.53 633.27 973.52 635.17C972.93 639.44 972.43 643.44 970.72 647.44C960.88 670.48 939.26 667.42 918.57 667.43C895.78 667.45 873 667.36 850.21 667.44C755.59 667.75 660.96 667.56 566.33 667.45C539.75 667.42 513.17 667.44 486.58 667.42C474.67 667.41 457.38 669.35 446.22 666.02C441.11 664.49 437.59 660.81 433.01 658.75C432.4 658.13 431.79 657.51 431.18 656.89C428.96 652.22 425.65 648.54 424.15 643.32C422.3 636.88 422.82 629.92 422.82 623.3C422.82 614.44 422.83 605.58 422.82 596.71C422.79 572.03 422.85 547.34 422.85 522.66C422.85 427.4 422.95 332.14 422.84 236.88C422.8 208.4 422.93 179.92 422.85 151.43C422.81 134.76 421.93 117.84 436.84 106.89C446.92 99.49 458.56 100.46 470.44 100.48C487.21 100.52 503.99 100.4 520.76 100.44C565.7 100.54 610.64 100.41 655.58 100.43C681.3 100.45 707.26 101.43 732.96 100.33ZM741.98 154.44C738.19 152.7 734.91 148.8 731.44 146.25C724.83 141.39 717.39 137.43 709.49 135.13C689.6 129.35 657.14 133.45 658.98 160.93C659.22 164.57 660.3 168.09 661.82 171.37C658.69 172.52 655.32 172.47 651.96 173.13C644.85 174.53 637.75 177.94 632.32 182.76C629.21 185.52 626.84 188.79 625.01 192.5C623.41 195.73 622.25 199.09 621.96 202.7C620.14 224.79 636.57 234.68 653.98 242.58C649.77 249.44 645.55 256.3 641.34 263.16C637 258.69 632.47 254.67 626.78 251.96C620.98 249.19 614.49 248.14 608.11 248C586.08 247.52 568.61 260.98 557.79 279.14C548.53 276.74 546.03 272.98 535.01 275.33C521.17 278.29 510.64 289.69 504.76 302.1C491.22 330.71 500.62 367.19 529.57 382.14C527.93 392.16 517.89 394.5 510.07 398.5C497.86 404.76 486.23 413.27 477.72 424.1C473.31 429.71 465.24 441.3 473.08 447.36C480.53 453.11 498.1 452.39 506.26 458.1C496.26 479.42 481.69 499.59 499.59 522.46C502.22 525.82 505.39 528.83 508.98 531.14C514.91 534.96 521.36 535.97 527.93 537.85C529.06 547.91 529.31 558.12 529.82 568.23C530.15 574.86 530.27 581.63 534.89 586.88C543.08 596.19 561.88 592.46 572.89 591.13C595.03 588.47 617.3 583.66 638.27 576C649.32 571.97 659.69 565.74 670.77 562.01C680.32 568.12 688.76 575.85 698.48 581.84C730.7 601.72 767.11 615.03 804.64 620.05C815.04 621.44 825.45 622.6 835.97 622.73C842.19 622.81 848.88 622.23 853.53 617.59C859.04 612.09 858.81 603.94 859.32 596.71C860.16 584.8 860.44 571.64 863.5 560.12C885.79 559.57 899.55 539.45 896.79 518.17C895.15 505.55 888.91 497.77 885.06 486.58C892.69 484.34 900.34 482.06 908.1 480.24C913.06 479.08 919.94 479.41 924.28 476.65C931.54 472.01 925.75 460.17 922.56 454.57C916.12 443.27 906.1 434.43 894.75 428.26C888.63 424.93 881.45 422.71 875.68 418.87C871.84 416.33 866.98 408.33 866.14 403.98C880.95 396.03 893.47 385.69 897.79 368.59C904.89 340.47 887.35 310.13 857.78 305.96C845.6 304.24 834.23 307.17 823.63 313C820.3 309.68 817.46 306.16 813.53 303.46C810.4 301.29 806.51 300.08 803.81 297.65C816.36 290.29 829.81 284.26 842.55 277.18C847.03 274.68 854.29 271.54 852.98 265.09C851.79 259.25 845.35 255.48 840.68 252.57C831.72 246.99 822.15 242.69 812.13 239.4C807.29 237.8 800.96 237.16 796.9 234.03C799.05 228.26 801.95 223.14 802.94 216.89C805.88 198.26 800.38 177.64 789.41 162.41C778 146.58 756.87 136.94 741.98 154.44ZM716.54 507.47C714.48 511.26 710.49 514.12 707.19 516.85C699.89 522.88 692.06 528.43 684.17 533.65C654.22 553.48 619.77 566.62 584.37 572.41C573.48 574.2 558.01 577.53 547.34 575.03C546.52 561.69 545.69 548.35 544.86 535C550.24 530.83 556.03 528.55 560.47 522.96C572.79 507.45 568.62 486.21 560.87 469.71C558.25 464.13 554.49 459.05 552.21 453.35C557.98 439.67 558.12 423.23 551.55 409.76C548.94 404.4 544.89 400.29 541.66 395.44C567.57 355.39 624.25 347.68 659.15 380.94C680.44 401.23 691.27 429.76 701.08 456.82C707.02 473.19 713.31 490.34 716.54 507.47ZM590.16 395.2C567.27 399.9 575.81 437.69 600.36 429.86C621.48 423.12 612.74 390.57 590.16 395.2ZM854.5 418.64C854.96 419.77 855.42 420.89 855.88 422.02C855.69 422.17 855.5 422.33 855.3 422.48C854.71 421.38 854.12 420.27 853.53 419.17C853.86 418.99 854.18 418.82 854.5 418.64ZM787.16 433.12C787.17 435.18 787.18 437.24 787.18 439.3C786.83 439.24 786.48 439.17 786.13 439.11C786.13 437.21 786.13 435.31 786.13 433.41C786.47 433.32 786.81 433.22 787.16 433.12ZM842.75 477.56C843.06 478.35 843.36 479.14 843.67 479.94C843.4 480.41 843.14 480.88 842.87 481.36C842.31 481.2 841.75 481.04 841.19 480.88C841.51 479.94 841.83 478.99 842.14 478.04C842.35 477.88 842.55 477.72 842.75 477.56ZM844.88 555.41C845.49 555.89 846.1 556.36 846.71 556.84C846.41 558.21 846.11 559.57 845.81 560.94C845.54 560.84 845.26 560.74 844.99 560.64C844.67 559.05 844.35 557.47 844.03 555.89C844.31 555.73 844.6 555.57 844.88 555.41ZM733.93 581.1C733.02 580.72 732.12 580.33 731.21 579.95C731.32 579.81 731.43 579.67 731.53 579.52C732.55 579.87 733.58 580.22 734.6 580.57C734.37 580.75 734.15 580.92 733.93 581.1ZM842.92 588.64C842.68 590.86 842.44 593.08 842.2 595.29C841.86 595.13 841.53 594.97 841.19 594.82C841.35 592.44 841.51 590.07 841.67 587.7C842.09 588.01 842.5 588.33 842.92 588.64ZM786.9 599.16C784.74 598.74 782.59 598.33 780.43 597.91C780.59 597.67 780.75 597.43 780.9 597.19C782.17 597.19 783.44 597.19 784.7 597.19C785.33 597.51 785.97 597.82 786.6 598.14C786.7 598.48 786.8 598.82 786.9 599.16ZM841.31 604.14C841.24 604.51 841.17 604.89 841.09 605.26C839.54 605.42 837.99 605.59 836.45 605.75C836.6 605.43 836.76 605.11 836.92 604.78C837.87 604.47 838.82 604.15 839.77 603.84C840.28 603.94 840.8 604.04 841.31 604.14Z" fill="#F4F5EF" fill-rule="evenodd" stroke="#F4F5EF" stroke-width="0.25" stroke-linejoin="round"/>
  <path d="M984.73 96.79C991.53 101.19 995.85 115.99 997.29 123.65C999.27 134.21 998.31 145.38 998.32 156.08C998.34 174.47 998.36 192.86 998.34 211.25C998.24 324.54 997.97 437.85 998.39 551.14C998.47 571.4 998.47 591.65 998.45 611.91C998.44 623.22 999.55 635.18 997.26 646.32C995.45 655.19 989.22 671.37 980.81 675.85C977.1 676.84 973.15 680.21 969.66 682.45C963.62 686.32 957.89 688.78 950.84 690.1C942.47 691.67 933.7 690.92 925.22 690.95C908.76 691.01 892.3 690.78 875.85 690.89C823.31 691.23 770.78 690.7 718.24 690.94C656.85 691.22 595.43 691.21 534.05 691.09C515.06 691.06 496.07 690.99 477.09 690.92C464.42 690.88 451.86 691.67 439.43 688.83C429.19 686.49 421.14 676.04 413.82 674.15C413.25 673.52 412.67 672.9 412.09 672.27C411.67 670.13 411.22 669.34 409.28 668.29C408.63 665.17 406.51 661.86 405.04 658.78C402.46 653.39 400.58 648.24 399.73 642.29C398.26 632.09 399.22 621.24 399.23 610.96C399.23 590.7 399.32 570.45 399.28 550.19C399.17 492.98 398.95 435.74 399.24 378.53C399.55 320.55 398.46 262.55 399.34 204.59C399.59 188.52 399.38 172.37 399.25 156.29C399.17 146.59 398.49 136.45 400.05 126.85C401.16 120.02 403.28 113.85 406.16 107.57C407.48 104.68 409.64 101.73 410.28 98.9C412.4 97.83 413.47 96.28 414.03 93.93C414.29 93.64 414.55 93.35 414.81 93.06C418.55 92.12 422.23 88.51 425.62 86.22C431.11 82.51 436.82 79.57 443.35 78.33C455.31 76.05 467.8 77.13 479.94 77.1C500.82 77.06 521.71 77.11 542.6 77.08C609.37 76.98 676.15 76.79 742.93 77.11C790.39 77.34 837.87 76.76 885.34 77.08C899.58 77.18 913.83 77.05 928.06 77.02C935.2 77 943.05 76.2 950.07 77.53C960.31 79.47 968.7 84.57 977.11 90.55C979.87 92.51 981.81 95.82 984.73 96.79ZM431.18 656.89C431.79 657.51 432.4 658.13 433.01 658.75C436.07 668.29 453.63 669.18 461.9 669.19C491.99 669.2 521.98 669.07 552.09 669.2C648.93 669.62 745.78 668.81 842.62 669.13C868.57 669.22 894.52 669.14 920.47 669.21C932.85 669.24 946.39 671.38 957.38 664.52C977.09 652.23 975.12 635.41 975.12 614.75C975.13 581.2 974.86 547.66 975.15 514.11C975.26 501.77 975.12 489.43 975.15 477.09C975.16 473.87 976.49 466.8 973.5 465.22C973.49 463.64 973.49 462.05 973.48 460.47C976.55 457.92 975.14 450.5 975.12 446.71C975.03 434.05 975.12 421.39 975.16 408.73C975.33 356.5 974.9 304.28 975.23 252.07C975.31 238.15 974.92 224.22 975.13 210.3C975.19 206.17 976.89 197.38 973.49 194.63C973.49 193.68 973.49 192.73 973.49 191.78C975.83 190.55 975.22 187.23 975.2 184.66C975.15 177.7 975.1 170.74 975.19 163.78C975.27 157.45 975.16 151.12 975.13 144.79C975.02 127.07 974.1 115.19 958.55 104.38C954.64 101.66 949.94 99.36 945.15 98.81C940.47 98.28 935.62 98.72 930.91 98.73C920.15 98.76 909.39 98.83 898.63 98.84C876.17 98.84 853.69 98.8 831.22 98.79C753.69 98.79 676.15 98.5 598.61 98.75C563.8 98.86 528.98 98.74 494.18 98.75C480.66 98.75 455.12 96.51 443.3 101.05C439.14 102.65 435.36 105.85 432.26 108.96C429.27 111.96 426.1 115.2 424.23 119.04C418.8 130.2 421.01 147.78 421 159.98C420.99 166.63 420.76 173.27 420.83 179.92C421.68 256.85 420.73 333.8 421.07 410.69C421.34 473 421.08 535.33 421 597.66C420.99 611.51 419.22 630.07 422.71 643.18C424.05 648.21 425.73 655.11 431.18 656.89ZM744.35 100.34C740.55 100.33 736.76 100.33 732.96 100.33C733.12 100.11 733.27 99.9 733.43 99.69C736.91 99.69 740.39 99.69 743.88 99.69C744.03 99.91 744.19 100.12 744.35 100.34ZM767.14 100.34C763.97 100.33 760.81 100.33 757.64 100.32C757.8 100.11 757.96 99.9 758.12 99.69C760.97 99.69 763.81 99.69 766.66 99.69C766.82 99.91 766.98 100.12 767.14 100.34ZM781.38 100.33C777.26 100.33 773.15 100.33 769.04 100.34C769.19 100.12 769.35 99.9 769.51 99.69C773.31 99.69 777.11 99.69 780.9 99.69C781.06 99.9 781.22 100.12 781.38 100.33ZM807.96 100.34C805.11 100.34 802.27 100.34 799.42 100.34C799.58 100.12 799.73 99.91 799.89 99.69C802.42 99.69 804.96 99.69 807.49 99.69C807.65 99.91 807.8 100.12 807.96 100.34ZM821.25 100.34C819.04 100.34 816.82 100.34 814.61 100.34C814.77 100.12 814.92 99.91 815.08 99.69C816.98 99.69 818.88 99.69 820.78 99.69C820.94 99.91 821.1 100.12 821.25 100.34ZM837.39 100.34C832.96 100.34 828.53 100.34 824.1 100.33C824.26 100.12 824.42 99.9 824.58 99.69C828.69 99.69 832.81 99.69 836.92 99.69C837.08 99.91 837.24 100.12 837.39 100.34ZM922.84 100.33C913.98 100.33 905.12 100.33 896.26 100.33C905.12 100.33 913.98 100.33 922.84 100.33ZM632.79 311.7C637.58 312.79 642.13 309.73 646.56 308.11C655.13 304.97 665.16 303.77 673.22 308.98C691.25 320.63 686.34 347.77 669.01 357.12C666.64 358.4 663.72 360.09 660.99 360.36C657.82 360.67 653.45 356.72 650.69 355.23C643.12 351.14 635.37 347.75 626.92 345.92C603.35 340.84 579.36 344.62 558.55 356.79C552.36 360.4 547.24 365.26 541.65 369.66C535.28 367.78 529.58 363.18 525.37 358.11C513.34 343.61 511.76 325.69 520 308.79C522.62 303.44 525.87 298.36 530.78 294.83C532.66 293.48 534.81 292.35 537.03 291.69C547.69 288.5 550.48 297.38 552.03 305.94C552.79 310.16 554.8 315.57 560.33 313.83C562.96 313 563.75 309.81 564.39 307.51C566.08 301.44 567.43 295.29 570.13 289.55C574.95 279.29 584.23 269.89 595.08 266.19C609.28 261.36 626.53 265.42 632.71 280.15C635.05 285.73 634.62 291.84 633.03 297.56C631.59 302.77 628.67 307.08 632.79 311.7ZM523.61 461.88C528.99 462.83 534.37 463.77 539.75 464.71C545.82 473.95 551.91 486.77 552.02 497.97C552.16 511.03 542.47 521.08 529.31 520.54C516.24 520 507.35 510.01 507.9 497.02C508.37 485.98 516.38 470.2 523.61 461.88ZM973.55 629.47C973.74 629.63 973.92 629.79 974.11 629.94C974.11 631.53 974.11 633.11 974.11 634.69C973.92 634.85 973.72 635.01 973.52 635.17C973.53 633.27 973.54 631.37 973.55 629.47Z" fill="#D94638" fill-rule="evenodd" stroke="#D94638" stroke-width="0.25" stroke-linejoin="round"/>
  <path d="M741.98 154.44C756.87 136.94 778 146.58 789.41 162.41C800.38 177.64 805.88 198.26 802.94 216.89C801.95 223.14 799.05 228.26 796.9 234.03C800.96 237.16 807.29 237.8 812.13 239.4C822.15 242.69 831.72 246.99 840.68 252.57C845.35 255.48 851.79 259.25 852.98 265.09C854.29 271.54 847.03 274.68 842.55 277.18C829.81 284.26 816.36 290.29 803.81 297.65C806.51 300.08 810.4 301.29 813.53 303.46C817.46 306.16 820.3 309.68 823.63 313C834.23 307.17 845.6 304.24 857.78 305.96C887.35 310.13 904.89 340.47 897.79 368.59C893.47 385.69 880.95 396.03 866.14 403.98C866.98 408.33 871.84 416.33 875.68 418.87C881.45 422.71 888.63 424.93 894.75 428.26C906.1 434.43 916.12 443.27 922.56 454.57C925.75 460.17 931.54 472.01 924.28 476.65C919.94 479.41 913.06 479.08 908.1 480.24C900.34 482.06 892.69 484.34 885.06 486.58C888.91 497.77 895.15 505.55 896.79 518.17C899.55 539.45 885.79 559.57 863.5 560.12C860.44 571.64 860.16 584.8 859.32 596.71C858.81 603.94 859.04 612.09 853.53 617.59C848.88 622.23 842.19 622.81 835.97 622.73C825.45 622.6 815.04 621.44 804.64 620.05C767.11 615.03 730.7 601.72 698.48 581.84C688.76 575.85 680.32 568.12 670.77 562.01C659.69 565.74 649.32 571.97 638.27 576C617.3 583.66 595.03 588.47 572.89 591.13C561.88 592.46 543.08 596.19 534.89 586.88C530.27 581.63 530.15 574.86 529.82 568.23C529.31 558.12 529.06 547.91 527.93 537.85C521.36 535.97 514.91 534.96 508.98 531.14C505.39 528.83 502.22 525.82 499.59 522.46C481.69 499.59 496.26 479.42 506.26 458.1C498.1 452.39 480.53 453.11 473.08 447.36C465.24 441.3 473.31 429.71 477.72 424.1C486.23 413.27 497.86 404.76 510.07 398.5C517.89 394.5 527.93 392.16 529.57 382.14C500.62 367.19 491.22 330.71 504.76 302.1C510.64 289.69 521.17 278.29 535.01 275.33C546.03 272.98 548.53 276.74 557.79 279.14C568.61 260.98 586.08 247.52 608.11 248C614.49 248.14 620.98 249.19 626.78 251.96C632.47 254.67 637 258.69 641.34 263.16C645.55 256.3 649.77 249.44 653.98 242.58C636.57 234.68 620.14 224.79 621.96 202.7C622.25 199.09 623.41 195.73 625.01 192.5C626.84 188.79 629.21 185.52 632.32 182.76C637.75 177.94 644.85 174.53 651.96 173.13C655.32 172.47 658.69 172.52 661.82 171.37C660.3 168.09 659.22 164.57 658.98 160.93C657.14 133.45 689.6 129.35 709.49 135.13C717.39 137.43 724.83 141.39 731.44 146.25C734.91 148.8 738.19 152.7 741.98 154.44ZM675.77 156.48C674.65 158.67 674.75 160.52 675.7 162.73C676.74 169.01 680.24 174.54 683.8 179.7C685.56 182.25 687.13 185.03 684.88 187.85C681.61 191.95 675.09 189.52 670.77 189.04C658.14 187.62 635.51 190.09 638.21 208.35C638.56 210.72 639.68 212.94 640.93 214.94C645.1 221.57 652.17 224.68 659.34 227.02C661.47 227.71 664.48 229.07 666.73 228.5C669.21 227.87 679.7 218.74 683.3 216.66C694.88 209.95 708.32 206.2 721.56 205C727.26 205.04 732.96 205.07 738.65 205.1C754.92 207.99 769.3 212.58 782.8 222.45C787.92 217.74 788.13 210.03 787.52 203.35C786.27 189.76 779.16 166.91 764.54 162.1C761.96 160.38 759.22 160.3 756.68 162.27C750.72 166.31 754.3 173.87 751.47 179.5C749.92 182.6 745.75 183.01 743.1 181.18C738.81 178.23 735.24 170.18 730.14 166.11C729.82 165.79 729.49 165.47 729.17 165.16C719.88 155.36 705.29 148.39 691.66 148.83C685.86 149.02 678.02 150.43 675.77 156.48ZM707.72 223.84C702.46 224.57 693.79 227.67 690.02 231.49C686.52 234 683.02 236.52 679.52 239.03C675.17 241.25 669.14 247.87 667.25 252.34C666.34 253.64 665.42 254.93 664.51 256.23C663.54 257.8 662.57 259.37 661.6 260.95C657.76 265.51 654.19 272.99 652.97 278.82C650.83 281.82 649.99 285.99 650.83 289.62C655.4 289.41 659.98 289.21 664.55 289.01C665.2 289.13 665.85 289.24 666.5 289.36C670.46 290.7 674.45 291.56 678.19 293.56C681.29 295.21 684.01 297.81 687.02 299.31C689 301.46 690.99 303.61 692.98 305.76C694.55 309.85 697.29 313.43 698.5 317.77C700.61 325.33 700.94 333.38 699.38 341.08C698.74 344.2 697.32 347.11 696.73 350.17C694.54 353.68 692.34 357.18 690.14 360.68C686.96 363.53 683.78 366.37 680.61 369.22C679.59 369.82 678.57 370.43 677.55 371.03C676.4 371.57 675.26 372.11 674.11 372.65C675.37 374.09 676.62 375.52 677.87 376.96C678.76 377.96 679.66 378.97 680.55 379.97C683.39 383.77 686.23 387.57 689.07 391.38C690.98 394.56 692.9 397.75 694.81 400.94C697.38 405.94 699.95 410.94 702.53 415.94C702.82 418.11 703.14 418.98 704.95 420.26C707.65 415.96 710.34 411.65 713.04 407.34C714.05 406.14 715.07 404.95 716.08 403.75C716.36 403.4 716.65 403.05 716.93 402.7C718.29 401.23 719.64 399.76 720.99 398.28C719.3 396.84 717.6 395.39 715.91 393.94C713.72 391.1 711.53 388.26 709.35 385.42C707.99 381.32 706.63 377.22 705.27 373.12C705.24 372.81 705.22 372.49 705.19 372.18C705.34 367.52 705.49 362.86 705.65 358.2C705.81 357.8 705.97 357.39 706.13 356.98C708.09 352.54 710.06 348.09 712.03 343.65C713.95 341.78 715.87 339.91 717.8 338.05C718.53 337.45 719.26 336.85 719.99 336.26C722.37 335.29 724.53 333.58 726.93 332.45C734.43 328.92 742.43 328.78 750.52 329.63C751.05 328.13 751.58 326.64 752.11 325.15C753.34 322.18 754.58 319.2 755.82 316.23C758.37 313.07 760.92 309.9 763.47 306.74C763.8 306.46 764.13 306.18 764.47 305.9C765.72 304.94 766.96 303.98 768.21 303.02C770.53 301.77 772.86 300.52 775.18 299.27C778.99 298.55 782.79 297.83 786.6 297.11C787.06 290.42 782.02 280.11 780.81 272.73C779.94 267.42 779.6 261.71 780.11 256.35C780.38 253.43 781.37 250.71 781.39 247.84C781.84 246.72 782.29 245.6 782.74 244.48C782.05 243.93 781.36 243.39 780.67 242.84C779.04 241.3 777.41 239.76 775.78 238.22C772.56 233.69 765.01 229.03 759.66 227.68C753.7 223.65 745.6 222.88 738.65 221.54C732.04 220.29 724.37 220.13 717.77 221.44C714.42 222.24 711.07 223.04 707.72 223.84ZM740.55 247.65C743.4 247.95 746.25 248.25 749.1 248.56C751.59 250.91 754.09 253.26 756.59 255.61C757.29 264.61 757.81 263.75 754.66 272.37C752.41 273.94 750.16 275.51 747.91 277.07C744.88 277.08 741.85 277.08 738.82 277.08C734.47 274.69 732.3 272.5 729.28 268.67C727.84 257.9 729.62 251.53 740.55 247.65ZM796.45 253.33C794.32 257.34 794.43 263.28 795.65 267.74C796.75 272.35 797.85 276.96 798.94 281.57C802.89 281.18 806.45 278.67 810.01 276.87C816.76 273.47 823.55 270.2 830.05 266.31C828.29 262.57 824.78 261.43 821.07 259.79C813.74 256.56 806.11 253.82 798.29 252.07C797.68 252.49 797.07 252.91 796.45 253.33ZM632.79 311.7C628.67 307.08 631.59 302.77 633.03 297.56C634.62 291.84 635.05 285.73 632.71 280.15C626.53 265.42 609.28 261.36 595.08 266.19C584.23 269.89 574.95 279.29 570.13 289.55C567.43 295.29 566.08 301.44 564.39 307.51C563.75 309.81 562.96 313 560.33 313.83C554.8 315.57 552.79 310.16 552.03 305.94C550.48 297.38 547.69 288.5 537.03 291.69C534.81 292.35 532.66 293.48 530.78 294.83C525.87 298.36 522.62 303.44 520 308.79C511.76 325.69 513.34 343.61 525.37 358.11C529.58 363.18 535.28 367.78 541.65 369.66C547.24 365.26 552.36 360.4 558.55 356.79C579.36 344.62 603.35 340.84 626.92 345.92C635.37 347.75 643.12 351.14 650.69 355.23C653.45 356.72 657.82 360.67 660.99 360.36C663.72 360.09 666.64 358.4 669.01 357.12C686.34 347.77 691.25 320.63 673.22 308.98C665.16 303.77 655.13 304.97 646.56 308.11C642.13 309.73 637.58 312.79 632.79 311.7ZM777.26 316.87C773.49 318.43 770.09 322.69 768.94 326.63C765.78 330.86 765.44 336.8 766.08 341.9C765.74 344 765.4 346.1 765.06 348.21C764.03 348.86 763 349.52 761.98 350.17C753.3 349.23 748.77 343.32 738.65 345.73C734.18 346.47 729.75 348.25 727.12 352.05C720.77 356.24 718.35 368.1 722.38 374.32C723.15 377.26 724.79 379.8 727.15 381.71C728.93 383.32 730.71 384.92 732.48 386.52C733.96 385.58 735.44 384.65 736.92 383.71C738.79 382.44 740.66 381.17 742.53 379.91C745.06 379.07 747.32 377.43 749.76 376.21C754.29 373.93 759.23 372.04 764.11 370.67C776.01 367.34 787.23 367.25 799.42 367.13C801.95 367.48 804.48 367.83 807.01 368.18C812.37 369.57 817.73 370.97 823.08 372.36C826.19 373.63 829.29 374.91 832.4 376.18C835.58 378.08 838.76 379.98 841.94 381.88C843.21 382.82 844.47 383.76 845.73 384.7C847.03 385.62 848.32 386.54 849.62 387.46C850.77 388.7 851.91 389.94 853.06 391.18C857.55 390.54 864.33 388.3 866.98 384.62C872.9 382.76 880.77 372.8 881.11 366.59C884.11 362.28 884.49 351.87 882.2 347.17C881.88 345.93 881.57 344.69 881.26 343.45C880.67 339.55 878.04 335.73 875.39 332.75C864.87 320.91 847.23 317.87 833.41 325.94C830.63 327.56 827.6 329.49 825.83 332.1C822.2 333.68 820.32 334.19 816.66 332.34C813.09 327.38 810.64 318.83 804.26 317.06C802.02 314.03 796.81 312.86 793.13 313.09C788.04 311.88 781.24 313.44 777.26 316.87ZM716.54 507.47C713.31 490.34 707.02 473.19 701.08 456.82C691.27 429.76 680.44 401.23 659.15 380.94C624.25 347.68 567.57 355.39 541.66 395.44C544.89 400.29 548.94 404.4 551.55 409.76C558.12 423.23 557.98 439.67 552.21 453.35C554.49 459.05 558.25 464.13 560.87 469.71C568.62 486.21 572.79 507.45 560.47 522.96C556.03 528.55 550.24 530.83 544.86 535C545.69 548.35 546.52 561.69 547.34 575.03C558.01 577.53 573.48 574.2 584.37 572.41C619.77 566.62 654.22 553.48 684.17 533.65C692.06 528.43 699.89 522.88 707.19 516.85C710.49 514.12 714.48 511.26 716.54 507.47ZM731.21 579.95C732.12 580.33 733.02 580.72 733.93 581.1C738.11 584.29 744.39 586.05 749.36 587.97C759.39 591.82 769.81 596.09 780.43 597.91C782.59 598.33 784.74 598.74 786.9 599.16C791.21 601.19 796.82 601.45 801.58 602.3C812.76 604.29 825.07 606.95 836.45 605.75C837.99 605.59 839.54 605.42 841.09 605.26C841.17 604.89 841.24 604.51 841.31 604.14C841.6 601.19 841.9 598.24 842.2 595.29C842.44 593.08 842.68 590.86 842.92 588.64C843.89 579.41 844.85 570.18 845.81 560.94C846.11 559.57 846.41 558.21 846.71 556.84C846.1 556.36 845.49 555.89 844.88 555.41C840.47 551.16 835.87 548 832.83 542.43C821.47 521.61 833.61 500.14 842.87 481.36C843.14 480.88 843.4 480.41 843.67 479.94C843.36 479.14 843.06 478.35 842.75 477.56C838.09 463.99 836.42 449.97 843.66 436.85C846.75 431.25 851.29 427.3 855.3 422.48C855.5 422.33 855.69 422.17 855.88 422.02C855.42 420.89 854.96 419.77 854.5 418.64C851.71 412.99 846.82 408.16 842.4 403.72C834.44 395.74 824.44 390.19 813.71 386.85C780.64 376.56 747.5 388.49 727.11 416.15C723.32 421.3 714.27 433.26 713.19 439.25C712.5 443.09 717.22 452.23 718.61 456.27C722.8 468.46 726.63 480.8 730.18 493.19C732.04 499.7 734.48 506.47 732.08 513.18C728.13 524.21 708.19 537.54 698.58 544.33C694.73 547.05 689.85 549.36 687.01 553.04C696.95 561.62 718.91 575.97 731.21 579.95ZM590.16 395.2C612.74 390.57 621.48 423.12 600.36 429.86C575.81 437.69 567.27 399.9 590.16 395.2ZM531.2 408.19C517.87 410.23 498.75 423.68 490.63 434.36C494.24 437.48 499.37 437.92 503.92 439.24C514.56 442.31 525.86 446.31 536.9 447.24C544.55 436.13 540.81 417.03 531.2 408.19ZM787.18 439.3C787.18 437.24 787.17 435.18 787.16 433.12C789.63 427.62 791.38 422.78 797.32 419.97C808.7 414.58 821.69 423.01 822.02 435.31C822.36 448.25 809.19 456.84 797.25 451.7C791.59 449.26 789.63 444.37 787.18 439.3ZM902.69 459.68C904.18 460.28 905.68 460.88 907.18 461.47C907.15 459.27 906.41 458.25 904.78 456.72C899.37 448.01 887.86 441.83 878.84 437.54C875.1 435.75 871.4 433.64 867.3 433.1C861.48 437.62 856.92 443.37 854.75 450.5C861.81 453.08 870.25 452.91 877.7 454.1C886.13 455.46 894.32 458.32 902.69 459.68ZM523.61 461.88C516.38 470.2 508.37 485.98 507.9 497.02C507.35 510.01 516.24 520 529.31 520.54C542.47 521.08 552.16 511.03 552.02 497.97C551.91 486.77 545.82 473.95 539.75 464.71C534.37 463.77 528.99 462.83 523.61 461.88ZM859.08 473.21C859.14 473.4 859.2 473.58 859.25 473.76C859.72 474.49 860.19 475.21 860.66 475.94C866.88 475.59 878.83 473.3 883.97 470.04C885.91 469.54 887.86 469.04 889.8 468.54C887.89 468.3 885.97 468.06 884.06 467.82C879.82 465.45 861.02 463.11 855.91 463.54C856.97 466.77 858.02 469.99 859.08 473.21ZM844.94 528.03C844.83 542.63 865.11 548.06 875.1 539.44C886.78 529.36 879.53 511.77 873.76 500.56C872.06 497.27 870.67 493.68 868.25 490.88C863.82 491.26 859.39 491.64 854.96 492.03C850.03 498.9 846.47 508.51 844.6 516.71C843.77 520.39 843.1 525.01 844.94 528.03Z" fill="#0D1116" fill-rule="evenodd" stroke="#0D1116" stroke-width="0.25" stroke-linejoin="round"/>
  <path d="M854.5 418.64C854.18 418.82 853.86 418.99 853.53 419.17C854.12 420.27 854.71 421.38 855.3 422.48C851.29 427.3 846.75 431.25 843.66 436.85C836.42 449.97 838.09 463.99 842.75 477.56C842.55 477.72 842.35 477.88 842.14 478.04C841.83 478.99 841.51 479.94 841.19 480.88C841.75 481.04 842.31 481.2 842.87 481.36C833.61 500.14 821.47 521.61 832.83 542.43C835.87 548 840.47 551.16 844.88 555.41C844.6 555.57 844.31 555.73 844.03 555.89C844.35 557.47 844.67 559.05 844.99 560.64C845.26 560.74 845.54 560.84 845.81 560.94C844.85 570.18 843.89 579.41 842.92 588.64C842.5 588.33 842.09 588.01 841.67 587.7C841.51 590.07 841.35 592.44 841.19 594.82C841.53 594.97 841.86 595.13 842.2 595.29C841.9 598.24 841.6 601.19 841.31 604.14C840.8 604.04 840.28 603.94 839.77 603.84C838.82 604.15 837.87 604.47 836.92 604.78C836.76 605.11 836.6 605.43 836.45 605.75C825.07 606.95 812.76 604.29 801.58 602.3C796.82 601.45 791.21 601.19 786.9 599.16C786.8 598.82 786.7 598.48 786.6 598.14C785.97 597.82 785.33 597.51 784.7 597.19C783.44 597.19 782.17 597.19 780.9 597.19C780.75 597.43 780.59 597.67 780.43 597.91C769.81 596.09 759.39 591.82 749.36 587.97C744.39 586.05 738.11 584.29 733.93 581.1C734.15 580.92 734.37 580.75 734.6 580.57C733.58 580.22 732.55 579.87 731.53 579.52C731.43 579.67 731.32 579.81 731.21 579.95C718.91 575.97 696.95 561.62 687.01 553.04C689.85 549.36 694.73 547.05 698.58 544.33C708.19 537.54 728.13 524.21 732.08 513.18C734.48 506.47 732.04 499.7 730.18 493.19C726.63 480.8 722.8 468.46 718.61 456.27C717.22 452.23 712.5 443.09 713.19 439.25C714.27 433.26 723.32 421.3 727.11 416.15C747.5 388.49 780.64 376.56 813.71 386.85C824.44 390.19 834.44 395.74 842.4 403.72C846.82 408.16 851.71 412.99 854.5 418.64ZM787.16 433.12C786.81 433.22 786.47 433.32 786.13 433.41C786.13 435.31 786.13 437.21 786.13 439.11C786.48 439.17 786.83 439.24 787.18 439.3C789.63 444.37 791.59 449.26 797.25 451.7C809.19 456.84 822.36 448.25 822.02 435.31C821.69 423.01 808.7 414.58 797.32 419.97C791.38 422.78 789.63 427.62 787.16 433.12ZM883.97 470.04C883.69 469.86 883.42 469.67 883.15 469.49C883.45 468.93 883.75 468.38 884.06 467.82C885.97 468.06 887.89 468.3 889.8 468.54C887.86 469.04 885.91 469.54 883.97 470.04Z" fill="#F6E3B2" fill-rule="evenodd" stroke="#F6E3B2" stroke-width="0.25" stroke-linejoin="round"/>
  <path d="M764.54 162.1C761.92 162.16 759.3 162.21 756.68 162.27C759.22 160.3 761.96 160.38 764.54 162.1ZM717.77 221.44C719.82 222.65 721.48 221.87 723.94 221.78C727.52 221.64 736.45 223.9 738.65 221.54C745.6 222.88 753.7 223.65 759.66 227.68C760.08 228.73 758.99 227.99 759.67 228.84C760.82 230.28 764.19 231.41 765.84 232.29C769.31 234.15 772.07 236.96 775.78 238.22C777.41 239.76 779.04 241.3 780.67 242.84C780.91 244.51 781.15 246.17 781.39 247.84C778.9 250.9 778.64 256.49 778.55 260.62C778.35 270.09 780.39 279.61 783.18 288.63C783.89 290.95 784.89 292.37 785.21 294.8C782.55 296.8 776.67 295.96 775.18 299.27C772.86 300.52 770.53 301.77 768.21 303.02C766.19 303.61 765.39 304 764.47 305.9C764.13 306.18 763.8 306.46 763.47 306.74C762.32 307.03 761.17 307.32 760.02 307.61C759.24 310.19 757.51 312.48 755.27 314.26C755.45 314.92 755.63 315.58 755.82 316.23C754.58 319.2 753.34 322.18 752.11 325.15C750.95 326.01 749.78 326.87 748.62 327.73C740.51 327.08 724.35 327.93 719.99 336.26C719.26 336.85 718.53 337.45 717.8 338.05C716.99 338.03 716.19 338.01 715.39 338C714.27 339.88 713.15 341.76 712.03 343.65C707.9 346.19 706.59 351 705.31 355.56C705.58 356.04 705.85 356.51 706.13 356.98C705.97 357.39 705.81 357.8 705.65 358.2C705.36 358.27 705.08 358.34 704.8 358.41C704.54 362.84 704.29 367.27 704.03 371.7C704.42 371.86 704.8 372.02 705.19 372.18C705.22 372.49 705.24 372.81 705.27 373.12C704.91 373.28 704.56 373.44 704.2 373.6C704.77 376.29 705.33 378.98 705.9 381.67C707.05 382.92 708.2 384.17 709.35 385.42C711.53 388.26 713.72 391.1 715.91 393.94C716.69 395.71 717.47 397.47 718.25 399.23C717.81 400.39 717.37 401.54 716.93 402.7C716.65 403.05 716.36 403.4 716.08 403.75C715.07 404.95 714.05 406.14 713.04 407.34C709.28 409.79 708.05 413.96 704.95 417.21C704.14 416.79 703.33 416.37 702.53 415.94C701.95 410.86 699.19 403.77 694.81 400.94C692.9 397.75 690.98 394.56 689.07 391.38C688.67 389.72 688.26 388.07 687.86 386.42C685.84 385.32 685.62 384.76 685.01 382.62C683.53 381.74 682.04 380.85 680.55 379.97C679.66 378.97 678.76 377.96 677.87 376.96C677.46 375.84 677.04 374.72 676.63 373.6C676.93 372.74 677.24 371.89 677.55 371.03C678.57 370.43 679.59 369.82 680.61 369.22C684.5 368.41 688.85 364.45 690.14 360.68C692.34 357.18 694.54 353.68 696.73 350.17C697.57 349.6 698.41 349.02 699.25 348.44C699.5 346.25 700.46 344.1 700.88 341.79C702.5 332.64 702.14 311.3 692.98 305.76C690.99 303.61 689 301.46 687.02 299.31C685.8 294.16 672.89 289.46 667.92 288.45C667.45 288.75 666.97 289.06 666.5 289.36C665.85 289.24 665.2 289.13 664.55 289.01C664.72 288.73 664.9 288.44 665.07 288.16C660.58 287.36 656.02 288.16 651.97 286.25C652.3 283.77 652.64 281.3 652.97 278.82C654.19 272.99 657.76 265.51 661.6 260.95C661.97 260.84 662.33 260.73 662.7 260.62C663.3 259.15 663.91 257.69 664.51 256.23C665.42 254.93 666.34 253.64 667.25 252.34C668.74 251.46 670.23 250.58 671.72 249.7C672.97 245.41 678 243.24 679.52 239.03C683.02 236.52 686.52 234 690.02 231.49C696.06 230.62 701.7 225.83 707.8 225.96C707.77 225.26 707.75 224.55 707.72 223.84C711.07 223.04 714.42 222.24 717.77 221.44ZM729.28 268.67C732.3 272.5 734.47 274.69 738.82 277.08C738.92 277.35 739.03 277.62 739.13 277.89C741.98 277.89 744.83 277.88 747.67 277.88C747.75 277.61 747.83 277.34 747.91 277.07C750.16 275.51 752.41 273.94 754.66 272.37C759.97 269.49 760.65 259.67 756.59 255.61C755.67 253.48 754.76 251.35 753.84 249.22C752.42 248.66 751 248.1 749.57 247.54C749.41 247.88 749.26 248.22 749.1 248.56C746.25 248.25 743.4 247.95 740.55 247.65C739.92 247.22 739.29 246.8 738.65 246.38C737.24 247.24 735.36 247.88 734 248.83C728.7 252.55 723.73 263.88 729.28 268.67ZM796.45 253.33C796.5 257.97 796.55 262.62 796.59 267.26C796.28 267.42 795.97 267.58 795.65 267.74C794.43 263.28 794.32 257.34 796.45 253.33ZM793.13 313.09C793.17 313.33 793.21 313.56 793.25 313.8C796.92 314.89 800.59 315.97 804.26 317.06C808.09 322.3 811.92 327.54 815.75 332.77C816.05 332.63 816.36 332.48 816.66 332.34C820.32 334.19 822.2 333.68 825.83 332.1C831.24 330.63 835.48 325.73 841.23 324.25C854.52 320.81 866.22 324.78 875.15 334.88C877.47 337.5 878.7 341.44 881.26 343.45C881.57 344.69 881.88 345.93 882.2 347.17C881.83 353.64 881.47 360.12 881.11 366.59C879.15 368.46 878.23 371.48 876.46 373.78C873.6 377.52 869.33 380.7 866.98 384.62C863.05 385.48 859.16 389.27 854.96 389.29C853.03 389.3 851.36 387.97 849.62 387.46C848.59 385.62 847.75 385.23 845.73 384.7C844.47 383.76 843.21 382.82 841.94 381.88C840.48 378.56 835.9 376.51 832.4 376.18C829.29 374.91 826.19 373.63 823.08 372.36C820.93 370.04 809.83 366.58 807.01 368.18C804.48 367.83 801.95 367.48 799.42 367.13C799.89 366.75 800.37 366.36 800.84 365.98C786.1 363.07 767.61 366.58 754.02 372.82C750.1 374.62 744.73 376.04 742.53 379.91C740.66 381.17 738.79 382.44 736.92 383.71C730.84 384.85 732.16 383.53 727.15 381.71C724.79 379.8 723.15 377.26 722.38 374.32C722.69 371.1 721.55 367.92 722.08 364.58C722.83 359.89 726.23 356.47 727.12 352.05C729.75 348.25 734.18 346.47 738.65 345.73C740.72 347.14 743.11 346.65 745.74 346.89C750.13 347.29 758.83 352.6 761.98 350.17C763 349.52 764.03 348.86 765.06 348.21C765.59 348.28 766.13 348.36 766.66 348.44C766.67 346.38 766.69 344.33 766.7 342.27C766.49 342.15 766.28 342.02 766.08 341.9C765.44 336.8 765.78 330.86 768.94 326.63C771.66 323.72 774.38 320.82 777.11 317.91C777.16 317.56 777.21 317.22 777.26 316.87C781.24 313.44 788.04 311.88 793.13 313.09ZM904.78 456.72C906.41 458.25 907.15 459.27 907.18 461.47C905.68 460.88 904.18 460.28 902.69 459.68C903.57 459.47 904.45 459.26 905.33 459.05C905.14 458.27 904.96 457.49 904.78 456.72ZM859.08 473.21C859.14 473.4 859.2 473.58 859.25 473.76C859.2 473.58 859.14 473.4 859.08 473.21ZM844.94 528.03C845.26 524.89 844.78 521.57 845.48 518.39C846.77 512.59 852.17 498.19 855.91 493.84C858.95 493.23 864.5 492.05 867.43 493.59C870.13 495.02 871.88 500.24 873.27 502.85C877.98 511.73 882.65 525.35 877.03 534.76C872.39 542.52 859.54 544.84 852.65 538.76C849.21 535.72 848.02 530.77 844.94 528.03Z" fill="#E07029" fill-rule="evenodd" stroke="#E07029" stroke-width="0.25" stroke-linejoin="round"/>
  <path d="M729.17 165.16C729.49 165.47 729.82 165.79 730.14 166.11C735.24 170.18 738.81 178.23 743.1 181.18C745.75 183.01 749.92 182.6 751.47 179.5C754.3 173.87 750.72 166.31 756.68 162.27C759.3 162.21 761.92 162.16 764.54 162.1C779.16 166.91 786.27 189.76 787.52 203.35C788.13 210.03 787.92 217.74 782.8 222.45C769.3 212.58 754.92 207.99 738.65 205.1C734.04 203.74 726.1 203.21 721.56 205C708.32 206.2 694.88 209.95 683.3 216.66C679.7 218.74 669.21 227.87 666.73 228.5C664.48 229.07 661.47 227.71 659.34 227.02C652.17 224.68 645.1 221.57 640.93 214.94C639.68 212.94 638.56 210.72 638.21 208.35C635.51 190.09 658.14 187.62 670.77 189.04C675.09 189.52 681.61 191.95 684.88 187.85C687.13 185.03 685.56 182.25 683.8 179.7C680.24 174.54 676.74 169.01 675.7 162.73C675.72 160.65 675.75 158.56 675.77 156.48C678.02 150.43 685.86 149.02 691.66 148.83C705.29 148.39 719.88 155.36 729.17 165.16ZM795.65 267.74C795.97 267.58 796.28 267.42 796.59 267.26C796.55 262.62 796.5 257.97 796.45 253.33C797.07 252.91 797.68 252.49 798.29 252.07C806.11 253.82 813.74 256.56 821.07 259.79C824.78 261.43 828.29 262.57 830.05 266.31C823.55 270.2 816.76 273.47 810.01 276.87C806.45 278.67 802.89 281.18 798.94 281.57C797.85 276.96 796.75 272.35 795.65 267.74ZM531.2 408.19C540.81 417.03 544.55 436.13 536.9 447.24C525.86 446.31 514.56 442.31 503.92 439.24C499.37 437.92 494.24 437.48 490.63 434.36C498.75 423.68 517.87 410.23 531.2 408.19ZM904.78 456.72C904.96 457.49 905.14 458.27 905.33 459.05C904.45 459.26 903.57 459.47 902.69 459.68C894.32 458.32 886.13 455.46 877.7 454.1C870.25 452.91 861.81 453.08 854.75 450.5C856.92 443.37 861.48 437.62 867.3 433.1C871.4 433.64 875.1 435.75 878.84 437.54C887.86 441.83 899.37 448.01 904.78 456.72ZM884.06 467.82C883.75 468.38 883.45 468.93 883.15 469.49C883.42 469.67 883.69 469.86 883.97 470.04C878.83 473.3 866.88 475.59 860.66 475.94C860.19 475.21 859.72 474.49 859.25 473.76C859.2 473.58 859.14 473.4 859.08 473.21C858.02 469.99 856.97 466.77 855.91 463.54C861.02 463.11 879.82 465.45 884.06 467.82Z" fill="#F1AE14" fill-rule="evenodd" stroke="#F1AE14" stroke-width="0.25" stroke-linejoin="round"/>
  <path d="M984.73 96.79C981.81 95.82 979.87 92.51 977.11 90.55C968.7 84.57 960.31 79.47 950.07 77.53C943.05 76.2 935.2 77 928.06 77.02C913.83 77.05 899.58 77.18 885.34 77.08C837.87 76.76 790.39 77.34 742.93 77.11C676.15 76.79 609.37 76.98 542.6 77.08C521.71 77.11 500.82 77.06 479.94 77.1C467.8 77.13 455.31 76.05 443.35 78.33C436.82 79.57 431.11 82.51 425.62 86.22C422.23 88.51 418.55 92.12 414.81 93.06C419.85 84.86 434.66 78.53 443.76 76.63C453.67 74.55 464.17 75.45 474.24 75.4C492.28 75.3 510.32 75.39 528.36 75.4C639.44 75.43 750.53 75.21 861.6 75.4C880.91 75.44 900.21 75.37 919.52 75.38C930.71 75.39 942.74 74.21 953.72 76.78C963.49 79.07 980.42 87.21 984.73 96.79ZM414.03 93.93C413.47 96.28 412.4 97.83 410.28 98.9C410.78 96.49 411.85 95.23 414.03 93.93ZM410.28 98.9C409.64 101.73 407.48 104.68 406.16 107.57C403.28 113.85 401.16 120.02 400.05 126.85C398.49 136.45 399.17 146.59 399.25 156.29C399.38 172.37 399.59 188.52 399.34 204.59C398.46 262.55 399.55 320.55 399.24 378.53C398.95 435.74 399.17 492.98 399.28 550.19C399.32 570.45 399.23 590.7 399.23 610.96C399.22 621.24 398.26 632.09 399.73 642.29C400.58 648.24 402.46 653.39 405.04 658.78C406.51 661.86 408.63 665.17 409.28 668.29C403 665.03 398.36 647.26 397.88 640.39C397.22 630.96 397.71 621.36 397.69 611.91C397.66 594.18 397.71 576.46 397.71 558.74C397.76 446.39 397.74 334.04 397.73 221.69C397.73 202.39 397.74 183.08 397.72 163.78C397.71 152.44 397.11 140.91 397.9 129.6C398.47 121.38 400.94 113.4 404.77 106.13C406.21 103.4 407.62 100.13 410.28 98.9ZM973.49 191.78C972.9 177.43 973.35 162.95 973.36 148.59C973.36 128.48 972.81 109.8 950.33 102.1C941.57 99.09 931.92 100.74 922.84 100.33C913.98 100.33 905.12 100.33 896.26 100.33C876.64 100.33 857.02 100.34 837.39 100.34C837.24 100.12 837.08 99.91 836.92 99.69C832.81 99.69 828.69 99.69 824.58 99.69C824.42 99.9 824.26 100.12 824.1 100.33C823.15 100.34 822.2 100.34 821.25 100.34C821.1 100.12 820.94 99.91 820.78 99.69C818.88 99.69 816.98 99.69 815.08 99.69C814.92 99.91 814.77 100.12 814.61 100.34C812.39 100.34 810.18 100.34 807.96 100.34C807.8 100.12 807.65 99.91 807.49 99.69C804.96 99.69 802.42 99.69 799.89 99.69C799.73 99.91 799.58 100.12 799.42 100.34C793.4 100.34 787.39 100.33 781.38 100.33C781.22 100.12 781.06 99.9 780.9 99.69C777.11 99.69 773.31 99.69 769.51 99.69C769.35 99.9 769.19 100.12 769.04 100.34C768.4 100.34 767.77 100.34 767.14 100.34C766.98 100.12 766.82 99.91 766.66 99.69C763.81 99.69 760.97 99.69 758.12 99.69C757.96 99.9 757.8 100.11 757.64 100.32C753.21 100.33 748.78 100.33 744.35 100.34C744.19 100.12 744.03 99.91 743.88 99.69C740.39 99.69 736.91 99.69 733.43 99.69C733.27 99.9 733.12 100.11 732.96 100.33C707.26 101.43 681.3 100.45 655.58 100.43C610.64 100.41 565.7 100.54 520.76 100.44C503.99 100.4 487.21 100.52 470.44 100.48C458.56 100.46 446.92 99.49 436.84 106.89C421.93 117.84 422.81 134.76 422.85 151.43C422.93 179.92 422.8 208.4 422.84 236.88C422.95 332.14 422.85 427.4 422.85 522.66C422.85 547.34 422.79 572.03 422.82 596.71C422.83 605.58 422.82 614.44 422.82 623.3C422.82 629.92 422.3 636.88 424.15 643.32C425.65 648.54 428.96 652.22 431.18 656.89C425.73 655.11 424.05 648.21 422.71 643.18C419.22 630.07 420.99 611.51 421 597.66C421.08 535.33 421.34 473 421.07 410.69C420.73 333.8 421.68 256.85 420.83 179.92C420.76 173.27 420.99 166.63 421 159.98C421.01 147.78 418.8 130.2 424.23 119.04C426.1 115.2 429.27 111.96 432.26 108.96C435.36 105.85 439.14 102.65 443.3 101.05C455.12 96.51 480.66 98.75 494.18 98.75C528.98 98.74 563.8 98.86 598.61 98.75C676.15 98.5 753.69 98.79 831.22 98.79C853.69 98.8 876.17 98.84 898.63 98.84C909.39 98.83 920.15 98.76 930.91 98.73C935.62 98.72 940.47 98.28 945.15 98.81C949.94 99.36 954.64 101.66 958.55 104.38C974.1 115.19 975.02 127.07 975.13 144.79C975.16 151.12 975.27 157.45 975.19 163.78C975.1 170.74 975.15 177.7 975.2 184.66C975.22 187.23 975.83 190.55 973.49 191.78ZM675.77 156.48C675.75 158.56 675.72 160.65 675.7 162.73C674.75 160.52 674.65 158.67 675.77 156.48ZM729.17 165.16C729.49 165.47 729.82 165.79 730.14 166.11C729.82 165.79 729.49 165.47 729.17 165.16ZM973.49 194.63C976.89 197.38 975.19 206.17 975.13 210.3C974.92 224.22 975.31 238.15 975.23 252.07C974.9 304.28 975.33 356.5 975.16 408.73C975.12 421.39 975.03 434.05 975.12 446.71C975.14 450.5 976.55 457.92 973.48 460.47C973.49 371.86 973.49 283.25 973.49 194.63ZM738.65 205.1C732.96 205.07 727.26 205.04 721.56 205C726.1 203.21 734.04 203.74 738.65 205.1ZM717.77 221.44C724.37 220.13 732.04 220.29 738.65 221.54C736.45 223.9 727.52 221.64 723.94 221.78C721.48 221.87 719.82 222.65 717.77 221.44ZM707.72 223.84C707.75 224.55 707.77 225.26 707.8 225.96C701.7 225.83 696.06 230.62 690.02 231.49C693.79 227.67 702.46 224.57 707.72 223.84ZM759.66 227.68C765.01 229.03 772.56 233.69 775.78 238.22C772.07 236.96 769.31 234.15 765.84 232.29C764.19 231.41 760.82 230.28 759.67 228.84C758.99 227.99 760.08 228.73 759.66 227.68ZM679.52 239.03C678 243.24 672.97 245.41 671.72 249.7C670.23 250.58 668.74 251.46 667.25 252.34C669.14 247.87 675.17 241.25 679.52 239.03ZM780.67 242.84C781.36 243.39 782.05 243.93 782.74 244.48C782.29 245.6 781.84 246.72 781.39 247.84C781.15 246.17 780.91 244.51 780.67 242.84ZM740.55 247.65C729.62 251.53 727.84 257.9 729.28 268.67C723.73 263.88 728.7 252.55 734 248.83C735.36 247.88 737.24 247.24 738.65 246.38C739.29 246.8 739.92 247.22 740.55 247.65ZM756.59 255.61C754.09 253.26 751.59 250.91 749.1 248.56C749.26 248.22 749.41 247.88 749.57 247.54C751 248.1 752.42 248.66 753.84 249.22C754.76 251.35 755.67 253.48 756.59 255.61ZM781.39 247.84C781.37 250.71 780.38 253.43 780.11 256.35C779.6 261.71 779.94 267.42 780.81 272.73C782.02 280.11 787.06 290.42 786.6 297.11C782.79 297.83 778.99 298.55 775.18 299.27C776.67 295.96 782.55 296.8 785.21 294.8C784.89 292.37 783.89 290.95 783.18 288.63C780.39 279.61 778.35 270.09 778.55 260.62C778.64 256.49 778.9 250.9 781.39 247.84ZM756.59 255.61C760.65 259.67 759.97 269.49 754.66 272.37C757.81 263.75 757.29 264.61 756.59 255.61ZM664.51 256.23C663.91 257.69 663.3 259.15 662.7 260.62C662.33 260.73 661.97 260.84 661.6 260.95C662.57 259.37 663.54 257.8 664.51 256.23ZM738.82 277.08C741.85 277.08 744.88 277.08 747.91 277.07C747.83 277.34 747.75 277.61 747.67 277.88C744.83 277.88 741.98 277.89 739.13 277.89C739.03 277.62 738.92 277.35 738.82 277.08ZM652.97 278.82C652.64 281.3 652.3 283.77 651.97 286.25C656.02 288.16 660.58 287.36 665.07 288.16C664.9 288.44 664.72 288.73 664.55 289.01C659.98 289.21 655.4 289.41 650.83 289.62C649.99 285.99 650.83 281.82 652.97 278.82ZM687.02 299.31C684.01 297.81 681.29 295.21 678.19 293.56C674.45 291.56 670.46 290.7 666.5 289.36C666.97 289.06 667.45 288.75 667.92 288.45C672.89 289.46 685.8 294.16 687.02 299.31ZM768.21 303.02C766.96 303.98 765.72 304.94 764.47 305.9C765.39 304 766.19 303.61 768.21 303.02ZM692.98 305.76C702.14 311.3 702.5 332.64 700.88 341.79C700.46 344.1 699.5 346.25 699.25 348.44C698.41 349.02 697.57 349.6 696.73 350.17C697.32 347.11 698.74 344.2 699.38 341.08C700.94 333.38 700.61 325.33 698.5 317.77C697.29 313.43 694.55 309.85 692.98 305.76ZM763.47 306.74C760.92 309.9 758.37 313.07 755.82 316.23C755.63 315.58 755.45 314.92 755.27 314.26C757.51 312.48 759.24 310.19 760.02 307.61C761.17 307.32 762.32 307.03 763.47 306.74ZM793.13 313.09C796.81 312.86 802.02 314.03 804.26 317.06C800.59 315.97 796.92 314.89 793.25 313.8C793.21 313.56 793.17 313.33 793.13 313.09ZM777.26 316.87C777.21 317.22 777.16 317.56 777.11 317.91C774.38 320.82 771.66 323.72 768.94 326.63C770.09 322.69 773.49 318.43 777.26 316.87ZM804.26 317.06C810.64 318.83 813.09 327.38 816.66 332.34C816.36 332.48 816.05 332.63 815.75 332.77C811.92 327.54 808.09 322.3 804.26 317.06ZM881.26 343.45C878.7 341.44 877.47 337.5 875.15 334.88C866.22 324.78 854.52 320.81 841.23 324.25C835.48 325.73 831.24 330.63 825.83 332.1C827.6 329.49 830.63 327.56 833.41 325.94C847.23 317.87 864.87 320.91 875.39 332.75C878.04 335.73 880.67 339.55 881.26 343.45ZM752.11 325.15C751.58 326.64 751.05 328.13 750.52 329.63C742.43 328.78 734.43 328.92 726.93 332.45C724.53 333.58 722.37 335.29 719.99 336.26C724.35 327.93 740.51 327.08 748.62 327.73C749.78 326.87 750.95 326.01 752.11 325.15ZM717.8 338.05C715.87 339.91 713.95 341.78 712.03 343.65C713.15 341.76 714.27 339.88 715.39 338C716.19 338.01 716.99 338.03 717.8 338.05ZM766.08 341.9C766.28 342.02 766.49 342.15 766.7 342.27C766.69 344.33 766.67 346.38 766.66 348.44C766.13 348.36 765.59 348.28 765.06 348.21C765.4 346.1 765.74 344 766.08 341.9ZM712.03 343.65C710.06 348.09 708.09 352.54 706.13 356.98C705.85 356.51 705.58 356.04 705.31 355.56C706.59 351 707.9 346.19 712.03 343.65ZM761.98 350.17C758.83 352.6 750.13 347.29 745.74 346.89C743.11 346.65 740.72 347.14 738.65 345.73C748.77 343.32 753.3 349.23 761.98 350.17ZM882.2 347.17C884.49 351.87 884.11 362.28 881.11 366.59C881.47 360.12 881.83 353.64 882.2 347.17ZM727.12 352.05C726.23 356.47 722.83 359.89 722.08 364.58C721.55 367.92 722.69 371.1 722.38 374.32C718.35 368.1 720.77 356.24 727.12 352.05ZM705.65 358.2C705.49 362.86 705.34 367.52 705.19 372.18C704.8 372.02 704.42 371.86 704.03 371.7C704.29 367.27 704.54 362.84 704.8 358.41C705.08 358.34 705.36 358.27 705.65 358.2ZM690.14 360.68C688.85 364.45 684.5 368.41 680.61 369.22C683.78 366.37 686.96 363.53 690.14 360.68ZM799.42 367.13C787.23 367.25 776.01 367.34 764.11 370.67C759.23 372.04 754.29 373.93 749.76 376.21C747.32 377.43 745.06 379.07 742.53 379.91C744.73 376.04 750.1 374.62 754.02 372.82C767.61 366.58 786.1 363.07 800.84 365.98C800.37 366.36 799.89 366.75 799.42 367.13ZM881.11 366.59C880.77 372.8 872.9 382.76 866.98 384.62C869.33 380.7 873.6 377.52 876.46 373.78C878.23 371.48 879.15 368.46 881.11 366.59ZM823.08 372.36C817.73 370.97 812.37 369.57 807.01 368.18C809.83 366.58 820.93 370.04 823.08 372.36ZM677.55 371.03C677.24 371.89 676.93 372.74 676.63 373.6C677.04 374.72 677.46 375.84 677.87 376.96C676.62 375.52 675.37 374.09 674.11 372.65C675.26 372.11 676.4 371.57 677.55 371.03ZM705.27 373.12C706.63 377.22 707.99 381.32 709.35 385.42C708.2 384.17 707.05 382.92 705.9 381.67C705.33 378.98 704.77 376.29 704.2 373.6C704.56 373.44 704.91 373.28 705.27 373.12ZM832.4 376.18C835.9 376.51 840.48 378.56 841.94 381.88C838.76 379.98 835.58 378.08 832.4 376.18ZM680.55 379.97C682.04 380.85 683.53 381.74 685.01 382.62C685.62 384.76 685.84 385.32 687.86 386.42C688.26 388.07 688.67 389.72 689.07 391.38C686.23 387.57 683.39 383.77 680.55 379.97ZM727.15 381.71C732.16 383.53 730.84 384.85 736.92 383.71C735.44 384.65 733.96 385.58 732.48 386.52C730.71 384.92 728.93 383.32 727.15 381.71ZM845.73 384.7C847.75 385.23 848.59 385.62 849.62 387.46C848.32 386.54 847.03 385.62 845.73 384.7ZM866.98 384.62C864.33 388.3 857.55 390.54 853.06 391.18C851.91 389.94 850.77 388.7 849.62 387.46C851.36 387.97 853.03 389.3 854.96 389.29C859.16 389.27 863.05 385.48 866.98 384.62ZM715.91 393.94C717.6 395.39 719.3 396.84 720.99 398.28C719.64 399.76 718.29 401.23 716.93 402.7C717.37 401.54 717.81 400.39 718.25 399.23C717.47 397.47 716.69 395.71 715.91 393.94ZM694.81 400.94C699.19 403.77 701.95 410.86 702.53 415.94C699.95 410.94 697.38 405.94 694.81 400.94ZM716.08 403.75C715.07 404.95 714.05 406.14 713.04 407.34C714.05 406.14 715.07 404.95 716.08 403.75ZM713.04 407.34C710.34 411.65 707.65 415.96 704.95 420.26C703.14 418.98 702.82 418.11 702.53 415.94C703.33 416.37 704.14 416.79 704.95 417.21C708.05 413.96 709.28 409.79 713.04 407.34ZM973.5 465.22C976.49 466.8 975.16 473.87 975.15 477.09C975.12 489.43 975.26 501.77 975.15 514.11C974.86 547.66 975.13 581.2 975.12 614.75C975.12 635.41 977.09 652.23 957.38 664.52C946.39 671.38 932.85 669.24 920.47 669.21C894.52 669.14 868.57 669.22 842.62 669.13C745.78 668.81 648.93 669.62 552.09 669.2C521.98 669.07 491.99 669.2 461.9 669.19C453.63 669.18 436.07 668.29 433.01 658.75C437.59 660.81 441.11 664.49 446.22 666.02C457.38 669.35 474.67 667.41 486.58 667.42C513.17 667.44 539.75 667.42 566.33 667.45C660.96 667.56 755.59 667.75 850.21 667.44C873 667.36 895.78 667.45 918.57 667.43C939.26 667.42 960.88 670.48 970.72 647.44C972.43 643.44 972.93 639.44 973.52 635.17C973.72 635.01 973.92 634.85 974.11 634.69C974.11 633.11 974.11 631.53 974.11 629.94C973.92 629.79 973.74 629.63 973.55 629.47C973.53 574.72 973.51 519.97 973.5 465.22ZM844.94 528.03C848.02 530.77 849.21 535.72 852.65 538.76C859.54 544.84 872.39 542.52 877.03 534.76C882.65 525.35 877.98 511.73 873.27 502.85C871.88 500.24 870.13 495.02 867.43 493.59C864.5 492.05 858.95 493.23 855.91 493.84C852.17 498.19 846.77 512.59 845.48 518.39C844.78 521.57 845.26 524.89 844.94 528.03C843.1 525.01 843.77 520.39 844.6 516.71C846.47 508.51 850.03 498.9 854.96 492.03C859.39 491.64 863.82 491.26 868.25 490.88C870.67 493.68 872.06 497.27 873.76 500.56C879.53 511.77 886.78 529.36 875.1 539.44C865.11 548.06 844.83 542.63 844.94 528.03ZM409.28 668.29C411.22 669.34 411.67 670.13 412.09 672.27C410.21 671.08 409.72 670.39 409.28 668.29ZM413.82 674.15C421.14 676.04 429.19 686.49 439.43 688.83C451.86 691.67 464.42 690.88 477.09 690.92C496.07 690.99 515.06 691.06 534.05 691.09C595.43 691.21 656.85 691.22 718.24 690.94C770.78 690.7 823.31 691.23 875.85 690.89C892.3 690.78 908.76 691.01 925.22 690.95C933.7 690.92 942.47 691.67 950.84 690.1C957.89 688.78 963.62 686.32 969.66 682.45C973.15 680.21 977.1 676.84 980.81 675.85C975.4 684.83 956.11 691.62 946.1 692.17C917.36 693.76 886.76 692.33 857.81 692.4C747.04 692.67 636.27 692.56 525.51 692.4C508.1 692.38 490.69 692.46 473.29 692.4C463.56 692.36 453.44 693.19 443.85 691.33C434.49 689.51 418.7 682.82 413.82 674.15Z" fill="#AC5948" fill-rule="evenodd" stroke="#AC5948" stroke-width="0.25" stroke-linejoin="round"/>
</svg>